<?xml version="1.0" encoding="UTF-8" standalone="no"?>
<!-- Created with Inkscape (http://www.inkscape.org/) -->

<svg
   xmlns:dc="http://purl.org/dc/elements/1.1/"
   xmlns:cc="http://creativecommons.org/ns#"
   xmlns:rdf="http://www.w3.org/1999/02/22-rdf-syntax-ns#"
   xmlns:svg="http://www.w3.org/2000/svg"
   xmlns="http://www.w3.org/2000/svg"
   xmlns:sodipodi="http://sodipodi.sourceforge.net/DTD/sodipodi-0.dtd"
   xmlns:inkscape="http://www.inkscape.org/namespaces/inkscape"
   width="89.464615mm"
   height="128.84093mm"
   viewBox="0 0 89.464616 128.84092"
   version="1.1"
   id="svg3872"
   inkscape:version="0.92.3 (2405546, 2018-03-11)"
   sodipodi:docname="CommenceToLeft2.svg">
  <defs
     id="defs3866" />
  <sodipodi:namedview
     id="base"
     pagecolor="#ffffff"
     bordercolor="#666666"
     borderopacity="1.0"
     inkscape:pageopacity="0.0"
     inkscape:pageshadow="2"
     inkscape:zoom="0.98994949"
     inkscape:cx="447.28398"
     inkscape:cy="123.54877"
     inkscape:document-units="mm"
     inkscape:current-layer="layer1"
     showgrid="false"
     inkscape:window-width="1920"
     inkscape:window-height="1017"
     inkscape:window-x="3832"
     inkscape:window-y="-8"
     inkscape:window-maximized="1"
     fit-margin-left="5"
     fit-margin-top="5"
     fit-margin-bottom="5"
     fit-margin-right="5" />
  <metadata
     id="metadata3869">
    <rdf:RDF>
      <cc:Work
         rdf:about="">
        <dc:format>image/svg+xml</dc:format>
        <dc:type
           rdf:resource="http://purl.org/dc/dcmitype/StillImage" />
        <dc:title></dc:title>
      </cc:Work>
    </rdf:RDF>
  </metadata>
  <g
     inkscape:label="Layer 1"
     inkscape:groupmode="layer"
     id="layer1"
     transform="translate(6.5414003,-1.3123183)">
    <g
       transform="matrix(0.26458333,0,0,0.26458333,43.588503,-86.664149)"
       id="g3854">
      <path
         style="fill:#ffffff;stroke:#000000"
         d="m 27.528326,749.68163 c 11.47456,1.947 21.442352,2.72654 35.910412,4.69711 6.56408,69.45116 -61.1187519,53.10031 -35.910412,-4.69711 z m 0.95096,-12.97486 c -1.84292,-9.48778 -2.95131,-18.74868 -8.55967,-27.09684 -6.27043,-8.90649 -8.48546,-17.29102 -8.40782,-31.8251 0.14128,-26.43568 7.09742,-44.11426 19.64072,-49.91565 27.330512,-9.07109 35.707852,18.45311 39.974022,38.91043 3.55557,11.24557 2.60752,62.18754 -7.4685,72.544 -11.84686,-0.98441 -23.478102,-1.94894 -35.178522,-2.61729 z"
         id="path2-8-3"
         inkscape:connector-curvature="0" />
      <path
         d="m -106.70303,468.20197 c -10.57967,4.8505 -20.00606,8.18333 -33.47111,13.83136 11.63487,68.78357 72.779566,35.47226 33.47111,-13.83136 z m -4.27671,-12.28662 c -0.67549,-9.64148 -2.00176,-18.87369 1.25484,-28.38895 3.7516,-10.22591 3.72107,-18.89803 -0.11562,-32.91678 -6.97852,-25.49835 -18.2732,-40.77417 -31.89061,-43.13143 -28.74701,-1.68834 -29.71511,27.0662 -28.54116,47.93063 -0.52385,11.78264 13.57664,60.74343 25.98977,68.13913 11.1884,-4.01706 22.17368,-7.95911 33.30244,-11.63298 z"
         id="path2-0-2"
         inkscape:connector-curvature="0" />
      <path
         d="m 83.419768,742.8523 c 10.910763,-4.05113 19.932892,-8.35992 33.447882,-13.88739 40.41024,56.86443 -26.380242,76.54559 -33.447882,13.88739 z m -5.66388,-11.71204 c -6.33991,-7.2952 -11.93025,-14.76117 -20.96131,-19.18671 -9.8836,-4.57803 -15.994133,-10.73173 -23.193935,-23.35743 -13.095488,-22.96461 -15.910584,-41.75278 -7.948462,-53.04859 19.133371,-21.52104 40.150457,-1.87306 54.073727,13.71042 8.70201,7.96116 33.351952,52.55222 29.804092,66.55918 -10.751879,5.07091 -21.307102,10.05122 -31.774142,15.32262 z"
         id="path2-8-3-2"
         inkscape:connector-curvature="0" />
    </g>
  </g>
</svg>
