<?xml version="1.0" encoding="UTF-8" standalone="no"?>
<!-- Created with Inkscape (http://www.inkscape.org/) -->

<svg
   xmlns:dc="http://purl.org/dc/elements/1.1/"
   xmlns:cc="http://creativecommons.org/ns#"
   xmlns:rdf="http://www.w3.org/1999/02/22-rdf-syntax-ns#"
   xmlns:svg="http://www.w3.org/2000/svg"
   xmlns="http://www.w3.org/2000/svg"
   xmlns:sodipodi="http://sodipodi.sourceforge.net/DTD/sodipodi-0.dtd"
   xmlns:inkscape="http://www.inkscape.org/namespaces/inkscape"
   width="74.447083mm"
   height="128.74763mm"
   viewBox="0 0 74.447083 128.74763"
   version="1.1"
   id="svg3872"
   inkscape:version="0.92.3 (2405546, 2018-03-11)"
   sodipodi:docname="CommenceToLeft1.svg">
  <defs
     id="defs3866" />
  <sodipodi:namedview
     id="base"
     pagecolor="#ffffff"
     bordercolor="#666666"
     borderopacity="1.0"
     inkscape:pageopacity="0.0"
     inkscape:pageshadow="2"
     inkscape:zoom="0.35"
     inkscape:cx="366.40169"
     inkscape:cy="-59.554537"
     inkscape:document-units="mm"
     inkscape:current-layer="layer1"
     showgrid="false"
     inkscape:window-width="1920"
     inkscape:window-height="1017"
     inkscape:window-x="3832"
     inkscape:window-y="-8"
     inkscape:window-maximized="1"
     fit-margin-left="5"
     fit-margin-top="5"
     fit-margin-bottom="5"
     fit-margin-right="5" />
  <metadata
     id="metadata3869">
    <rdf:RDF>
      <cc:Work
         rdf:about="">
        <dc:format>image/svg+xml</dc:format>
        <dc:type
           rdf:resource="http://purl.org/dc/dcmitype/StillImage" />
        <dc:title></dc:title>
      </cc:Work>
    </rdf:RDF>
  </metadata>
  <g
     inkscape:label="Layer 1"
     inkscape:groupmode="layer"
     id="layer1"
     transform="translate(-8.8895528,-4.3285657)">
    <g
       transform="matrix(0.26458333,0,0,0.26458333,40.085859,65.942756)"
       id="g3849">
      <path
         style="fill:#ffffff;stroke:#000000"
         d="m 57.164166,183.94697 c -11.474573,1.947 -21.442364,2.72654 -35.910422,4.69711 -6.564075,69.45116 61.118761,53.10031 35.910422,-4.69711 z m -0.950969,-12.97486 c 1.84293,-9.48778 2.95132,-18.74868 8.559684,-27.09684 6.27043,-8.90649 8.485452,-17.29102 8.407814,-31.8251 C 73.039417,85.614481 66.083272,67.935908 53.539971,62.134524 26.209456,53.063433 17.832117,80.587621 13.56595,101.04495 c -3.555569,11.24557 -2.607522,62.18754 7.4685,72.544 11.846855,-0.98441 23.478095,-1.94894 35.17852,-2.61729 z"
         id="path2"
         inkscape:connector-curvature="0" />
      <path
         d="m 99.088373,184.29961 c 11.474567,1.947 21.442357,2.72654 35.910417,4.69711 6.56408,69.45116 -61.118757,53.10031 -35.910417,-4.69711 z m 0.950967,-12.97486 c -1.842927,-9.48778 -2.951317,-18.74868 -8.559677,-27.09684 -6.27043,-8.90649 -8.48546,-17.29102 -8.40782,-31.8251 0.14128,-26.435679 7.09742,-44.114257 19.640727,-49.915641 27.33051,-9.071091 35.70785,18.453102 39.97402,38.910421 3.55557,11.24557 2.60752,62.18754 -7.4685,72.544 -11.84686,-0.98441 -23.4781,-1.94894 -35.17852,-2.61729 z"
         id="path2-8"
         inkscape:connector-curvature="0" />
      <path
         d="m -35.142983,-97.180048 c -10.579666,4.8505 -20.006049,8.18333 -33.471099,13.83136 11.63487,68.783577 72.7795587,35.472263 33.471099,-13.83136 z m -4.276706,-12.286622 c -0.675484,-9.64148 -2.001758,-18.87369 1.254842,-28.38895 3.751601,-10.22591 3.721072,-18.89803 -0.115617,-32.91678 -6.978524,-25.49835 -18.273198,-40.77417 -31.890608,-43.13143 -28.747015,-1.68834 -29.715115,27.0662 -28.541165,47.93063 -0.52385,11.78264 13.576635,60.74343 25.989775,68.139132 11.1884,-4.017062 22.173674,-7.959112 33.302437,-11.632982 z"
         id="path2-0"
         inkscape:connector-curvature="0" />
    </g>
  </g>
</svg>
