<?xml version="1.0" encoding="iso-8859-1"?>
<!-- Generator: Adobe Illustrator 21.0.0, SVG Export Plug-In . SVG Version: 6.00 Build 0)  -->
<svg xmlns="http://www.w3.org/2000/svg" xmlns:xlink="http://www.w3.org/1999/xlink" version="1.1" id="Capa_1" x="0px" y="0px" viewBox="0 0 512 512" style="enable-background:new 0 0 512 512;" xml:space="preserve" width="512" height="512">
<g>
	<path style="fill:#FAD964;" d="M256,22C120.69,22,11,131.69,11,267c0,84.998,43.291,159.877,109.02,203.817l0,0l47.739,24.795   c20.711,7.999,42.78,13.261,65.768,15.352l68.635-3.326C415.4,486.044,501,386.527,501,267C501,131.69,391.31,22,256,22z"/>
	<path style="fill:#353966;" d="M320.693,327.22l-25.331,30.949c-4.725,6.814-15.37,4.145-16.322-4.091   c0.952,8.236-8.804,13.263-14.958,7.706l-25.312-19.433l-37.538,89.329c-8.302,19.756-3.909,42.568,11.138,57.827l21.158,21.457   C240.929,511.637,248.422,512,256,512c15.783,0,31.21-1.51,46.163-4.362l-44.814-47.8c-2.641-2.817-2.882-7.122-0.572-10.216   l58.191-77.939c8.793-11.778,11.335-27.086,6.819-41.073L320.693,327.22z"/>
	<path style="fill:#2B3160;" d="M321.788,330.61l-1.095-3.39l-25.331,30.949c-4.725,6.814-15.37,4.146-16.322-4.091   c0.952,8.236-8.804,13.263-14.958,7.706l-25.313-19.432l-37.538,89.329c-8.302,19.756-3.909,42.568,11.138,57.827l5.859,5.942   c-0.817-2.679-1.259-5.521-1.259-8.467c0-16.016,12.984-29,29-29c4.334,0,8.442,0.958,12.135,2.662l-0.755-0.806   c-2.641-2.817-2.882-7.122-0.572-10.217l58.191-77.939C323.762,359.905,326.303,344.597,321.788,330.61z"/>
	<path style="fill:#474979;" d="M295.362,358.169c-4.725,6.814-15.37,4.145-16.322-4.091c0.952,8.236-8.804,13.263-14.958,7.706   l-19.102-14.665l-79.415,70.233c-9.171,8.11-17.546,17.078-25.011,26.78l-20.534,26.685c14.848,9.926,30.841,18.268,47.74,24.795   l27.301-32.565c1.344-1.603,2.888-3.027,4.596-4.236l62.806-44.498c5.33-3.777,11.205-6.678,17.343-8.913   c21.903-7.977,46.046-29.478,46.046-52.613c0-12.469-2.494-20.576-5.092-25.648L295.362,358.169z"/>
	<path style="fill:#F9BD91;" d="M278.009,143.816c-2.563,0.296-4.881-1.541-5.177-4.104l-1.379-11.931   c-0.181,0.182-0.361,0.365-0.542,0.541c-4.654,4.549-10.711,7.422-17.201,8.163c-6.491,0.741-13.038-0.694-18.598-4.078   c-0.201-0.122-0.405-0.252-0.608-0.379l1.382,11.954c0.296,2.563-1.541,4.881-4.104,5.177c-0.09,0.01-0.175,0.033-0.264,0.044   c0.383,0.416,0.72,0.88,0.985,1.393c3.521,6.815,13.437,23.512,25.471,22.121c11.108-1.284,16.943-17.163,19.249-25.448   c0.427-1.536,1.411-2.777,2.68-3.58c-0.602,0.013-1.209,0.047-1.819,0.117L278.009,143.816z"/>
	<path style="fill:#EAA77A;" d="M235.113,132.408c-0.201-0.122-0.405-0.252-0.608-0.379l1.382,11.954   c0.296,2.563-1.541,4.881-4.104,5.177c-0.09,0.01-0.175,0.033-0.264,0.044c0.383,0.416,0.72,0.88,0.985,1.393   c3.457,6.692,13.082,22.898,24.821,22.167c0.921-13.241-1.133-26.439-3.412-36.309c-0.068,0.008-0.133,0.024-0.201,0.031   C247.22,137.226,240.672,135.791,235.113,132.408z"/>
	<path style="fill:#E2E9F2;" d="M298.549,338.01l-42.392,4.9c-8.872,1.026-16.971-5.395-17.996-14.267l-16.438-142.22   c-1.026-8.872,5.395-16.971,14.267-17.996l42.392-4.9c8.872-1.025,16.971,5.395,17.996,14.267l16.438,142.22   C313.842,328.887,307.422,336.985,298.549,338.01z"/>
	<path style="fill:#C7D6E5;" d="M275.489,324.329l-16.439-142.22c-1.025-8.872,1.765-16.55,6.201-17.064l-29.261,3.382   c-8.872,1.025-15.293,9.124-14.267,17.996l16.438,142.22c1.025,8.873,9.124,15.293,17.996,14.267l29.262-3.382   C280.983,340.041,276.515,333.201,275.489,324.329z"/>
	<path style="fill:#474979;" d="M235.8,142.756l17.099,23.734l-11.142,10.135c-0.91,0.828-2.363,0.522-2.861-0.603l-11.066-24.969   L235.8,142.756z"/>
	<path style="fill:#474979;" d="M272.636,138.498l-11.234,27.009l13.16,7.326c1.075,0.599,2.42-0.031,2.648-1.24l5.079-26.835   L272.636,138.498z"/>
	<path style="fill:#353966;" d="M279.159,356.084l-9.367-81.042c-0.189-1.628-0.501-3.239-0.935-4.819L230.83,147.911l-14.379,1.919   c1.395,8.462,2.67,27.723-7.344,52.922c2.065,1.123,3.626,3.117,4.075,5.593l15.499,85.502c0.574,3.165,0.766,6.387,0.573,9.598   l-1.564,25.959c-0.217,3.602,1.217,7.108,3.895,9.526l32.475,24.932C270.272,369.473,280.12,364.398,279.159,356.084z"/>
	<path style="fill:#2B3160;" d="M270.535,281.463l-0.016-0.001c-0.424,0.047-0.763,0.357-0.865,0.77   c-4.633,18.773-28.516,24.607-41.27,9.978c0.127,0.957,1.231,5.233,0.87,11.236l-1.564,25.959   c-0.217,3.602,1.217,7.108,3.895,9.527l32.475,24.932c6.212,5.609,16.06,0.535,15.099-7.779L270.535,281.463z"/>
	<path style="fill:#353966;" d="M269.603,270.137l9.123-127.762l14.438-1.412c0.573,8.557,3.725,27.601,19.223,49.852   c-1.754,1.564-2.819,3.862-2.691,6.375l4.414,86.783c0.163,3.212,0.711,6.393,1.632,9.475l7.444,24.918   c1.033,3.458,0.437,7.198-1.619,10.164l-25.931,31.683c-4.769,6.878-15.515,4.184-16.476-4.13l-9.367-81.042   C269.604,273.414,269.541,271.775,269.603,270.137z"/>
	<path style="fill:#FF0435;" d="M251.706,170.148c-0.232-2.004,0.575-3.887,1.991-5.118l-9.066-1.76   c-2.242-0.435-4.259,1.434-3.997,3.702l0.508,4.397l0.508,4.397c0.262,2.268,2.653,3.627,4.736,2.693l8.425-3.781   C253.152,173.802,251.937,172.152,251.706,170.148z"/>
	<path style="fill:#FF738D;" d="M268.718,160.486l-8.425,3.782c1.659,0.876,2.874,2.525,3.106,4.529   c0.232,2.005-0.575,3.887-1.991,5.119l9.066,1.76c2.241,0.435,4.259-1.434,3.997-3.702l-0.508-4.397l-0.508-4.397   C273.192,160.91,270.801,159.551,268.718,160.486z"/>
	
		<ellipse transform="matrix(0.9934 -0.1148 0.1148 0.9934 -17.7553 30.6927)" style="fill:#FF3C63;" cx="257.552" cy="169.472" rx="6.627" ry="6.627"/>
	<path style="fill:#474979;" d="M216.451,149.831c-11.414,6.856-21.605,15.568-30.153,25.777l-62.164,74.236l86.659-49.172   C210.793,200.672,221.522,171.649,216.451,149.831z"/>
	<path style="fill:#F9BD91;" d="M257.182,178.266c-8.248-6.945-20.561-5.887-27.505,2.358l-1.655,1.966   c-1.379-4.319-3.698-8.277-7.491-7.128c-5.886,1.784-5.831,15.035-5.476,21.214l-77.71,48.155   c-9.201,5.7-11.968,17.747-6.311,26.875c5.678,9.164,17.711,11.99,26.875,6.311l82.761-51.285c2.059-1.275,3.779-2.883,5.174-4.695   l13.697-16.265C266.485,197.525,265.428,185.21,257.182,178.266z"/>
	<path style="fill:#575B87;" d="M154.291,286.606l68.533-44.096c1.908-1.228,2.499-3.748,1.336-5.697l-19.647-32.905   c-1.208-2.023-3.842-2.66-5.841-1.413l-70.412,43.94c-10.648,6.95-14.004,21.013-7.64,32.022l0.001,0   C127.458,290.288,142.799,294,154.291,286.606z"/>
	<path style="fill:#474979;" d="M398.464,185.036l-22.631-38.899l-82.669-5.173c1.842,28.509,19.223,49.852,19.223,49.852   l99.717,7.016c4.087,0.288,7.999-0.387,11.556-1.789C414.023,197.998,403.831,193.844,398.464,185.036z"/>
	<path style="fill:#474979;" d="M229.462,1.86c-25.531,6.493-26.317,21.478-25.713,26.874c0.127,1.132-0.38,2.252-1.341,2.863   c-12.741,8.102-1.859,38.9-1.859,38.9c1.365-0.064,2.846,0.323,3.962,0.714c0.075-1.641,0.317-3.276,0.739-4.878   c0.322-1.221,0.756-2.466,1.339-3.663c1.013-2.076,1.314-4.423,0.886-6.687c-1.238-6.543-2.488-19.571,5.774-24.484   c7-4.162,16.27-3.272,22.261-2.012c3.891,0.819,7.951,0.355,11.557-1.319c5.553-2.578,14.384-5.533,22.142-3.056   c9.13,2.917,10.251,15.896,10.527,22.566c0.096,2.319,0.906,4.564,2.371,6.372c0.865,1.068,2.27,2.765,2.87,3.918   c0.745,1.433,1.331,2.935,1.763,4.478c1.259-0.798,3.015-2.332,4.671-2.288c-0.59-6.938-0.802-14.467-0.802-14.467   C293.999,7.176,256.952-5.131,229.462,1.86z"/>
	<polygon style="fill:#3B3F6D;" points="204.511,71.211 204.511,71.211 204.51,71.212  "/>
	<path style="fill:#3B3F6D;" d="M233.686,0.966c-15.931,2.829-31.729,11.762-29.937,27.769c0.127,1.132-0.38,2.252-1.341,2.862   c-12.741,8.102-1.859,38.9-1.859,38.9c1.365-0.064,2.845,0.323,3.962,0.714c0.132-2.889,0.816-5.952,2.078-8.541   c1.013-2.076,1.314-4.423,0.886-6.687c-1.238-6.543-2.488-19.571,5.774-24.484c6.472-3.848,14.88-3.376,20.848-2.287   C223.16,23.026,222.974,7.439,233.686,0.966z"/>
	<path style="fill:#F9BD91;" d="M294.388,60.731c-2.266-1.617-6.253-0.211-7.894,1.124c0.659,2.329,0.958,4.754,0.896,7.191   l-0.383,15.19c0.138,1.205,0.234,2.392,0.295,3.562c5.266,0.929,7.283-3.854,7.357-6.987c0.032-1.349,0.183-2.691,0.453-4.016   C295.994,72.482,300.066,64.781,294.388,60.731z"/>
	<path style="fill:#EAA77A;" d="M292.1,75.023c-1.8,0.205-3.512-0.34-4.826-1.386l-0.267,10.599   c0.138,1.205,0.234,2.392,0.295,3.562c5.266,0.929,7.283-3.854,7.357-6.987c0.032-1.349,0.183-2.691,0.453-4.016   c0.227-1.11,0.664-2.447,1.093-3.886C295.176,74.048,293.747,74.835,292.1,75.023z"/>
	<path style="fill:#F9BD91;" d="M196.636,71.886c1.844-2.085,6.045-1.614,7.944-0.683c-0.117,2.418,0.138,4.848,0.747,7.208   l3.795,14.713c0.138,1.205,0.311,2.383,0.515,3.537c-4.921,2.091-7.964-2.114-8.742-5.15c-0.335-1.307-0.784-2.581-1.346-3.81   C197.719,83.697,192.016,77.111,196.636,71.886z"/>
	<path style="fill:#EAA77A;" d="M206.474,82.858c-1.043,1.315-2.589,2.232-4.389,2.438c-1.646,0.188-3.216-0.257-4.477-1.134   c0.742,1.306,1.47,2.509,1.941,3.54c0.562,1.229,1.011,2.504,1.346,3.81c0.778,3.035,3.821,7.241,8.743,5.15   c-0.204-1.154-0.377-2.332-0.515-3.537L206.474,82.858z"/>
	<path style="fill:#FCD2AE;" d="M284.884,57.187c-0.601-1.155-1.324-2.312-2.192-3.382c-1.469-1.812-2.281-4.062-2.377-6.386   c-0.276-6.685-2.014-19.623-11.164-22.546c-7.774-2.483-16.624,0.478-22.189,3.062c-3.614,1.678-7.685,2.143-11.584,1.322   c-6.004-1.263-15.294-2.155-22.308,2.016c-8.28,4.924-7.027,17.981-5.787,24.538c0.429,2.268,0.127,4.621-0.888,6.702   c-0.585,1.199-1.02,2.448-1.342,3.671c-1.045,3.968-1.006,8.138,0.008,12.109l3.768,14.753   c2.459,21.548,15.632,34.881,26.283,41.363c5.56,3.383,12.108,4.818,18.598,4.077c6.491-0.741,12.547-3.614,17.201-8.163   c8.917-8.714,18.748-24.673,16.289-46.221l0.347-15.22C287.641,64.825,286.759,60.792,284.884,57.187z"/>
	<path style="fill:#F9BD91;" d="M252.396,132.436c-7.803-6.806-17.628-20.522-20.087-42.07l-3.169-14.822   c-0.853-3.99-1.018-8.145-0.403-12.064c0.19-1.208,0.459-2.438,0.836-3.613c0.655-2.04,0.793-4.374,0.413-6.647   c-1.099-6.574-2.42-19.623,3.319-24.257c0.035-0.029,0.073-0.051,0.109-0.079c-5.939-1.019-14.053-1.353-20.344,2.388   c-8.28,4.924-7.027,17.981-5.787,24.538c0.429,2.269,0.127,4.621-0.888,6.702c-0.585,1.199-1.02,2.448-1.342,3.671   c-1.045,3.968-1.006,8.138,0.008,12.109l3.768,14.753c2.459,21.548,15.632,34.881,26.283,41.363   c5.56,3.383,12.108,4.818,18.598,4.077c2.398-0.274,4.735-0.842,6.965-1.675C257.787,136.153,254.964,134.676,252.396,132.436z"/>
	<path style="fill:#353966;" d="M398.464,185.036l-22.631-38.899l-19.939-1.247c8.744,4.694,14.691,13.922,14.691,24.54   c0,10.555-5.875,19.738-14.533,24.458l56.052,3.944c4.087,0.288,7.999-0.387,11.556-1.789   C414.023,197.998,403.831,193.844,398.464,185.036z"/>
	<path style="fill:#F9BD91;" d="M428.6,158.729l-48.524-84.014c0.391-5.68,0.768-20.233-5.42-22.108   c-4.288-1.299-6.692,3.926-7.984,8.823l-7.275-6.458c-8.06-7.159-20.402-6.424-27.557,1.639c-7.158,8.062-6.424,20.4,1.639,27.558   l14.308,12.702l47.006,81.384c5.412,9.374,17.368,12.512,26.666,7.141C430.795,180.004,433.992,168.064,428.6,158.729z"/>
	<path style="fill:#575B87;" d="M437.072,162.611l-41.952-69.866c-1.168-1.945-3.669-2.614-5.653-1.512l-33.498,18.618   c-2.059,1.145-2.778,3.758-1.593,5.795l41.737,71.74c6.617,10.858,20.569,14.648,31.77,8.629l0-0.001   C439.921,189.545,444.107,174.327,437.072,162.611z"/>
	<path style="fill:#2B3160;" d="M323.186,318.367l-7.444-24.919c-0.92-3.082-1.469-6.263-1.632-9.475l-0.106-2.081   c-8.882,17.227-33.504,17.322-42.482,0.115c-0.191-0.366-0.578-0.583-0.988-0.544l8.625,74.621   c0.961,8.314,11.706,11.008,16.476,4.13l25.931-31.683C323.623,325.566,324.219,321.825,323.186,318.367z"/>
</g>















</svg>
